<?xml version="1.0" encoding="UTF-8" standalone="no"?>
<!-- Created with Inkscape (http://www.inkscape.org/) -->

<svg
   width="50mm"
   height="50mm"
   viewBox="0 0 50 50"
   version="1.1"
   id="svg1"
   xml:space="preserve"
   xmlns="http://www.w3.org/2000/svg"
   xmlns:svg="http://www.w3.org/2000/svg"><defs
     id="defs1" /><g
     id="layer1"
     transform="translate(203.87006,-73.687965)"><path
       id="rect5-27"
       style="fill:#ffffff;fill-opacity:1;stroke-width:0.264583"
       d="m -169.16807,94.329631 c -0.38525,0 -0.76514,0.0214 -1.13843,0.06356 2.39168,1.78942 4.1045,4.48907 4.46691,7.488949 0.12496,1.44334 0.1015,2.8941 0.0873,4.34444 h 0.0171 v 0.85989 c -0.0109,0.93522 -0.0202,1.87045 0,2.80397 2.4e-4,0.0112 2.7e-4,0.0224 5.2e-4,0.0336 0.0118,0.28562 0.0116,0.5707 -5.2e-4,0.85473 v 8.52196 c 5.0648,-0.32866 9.04183,-4.41243 9.04183,-9.43509 v -6.07921 c 0,-5.238969 -4.32721,-9.456789 -9.70225,-9.456789 z" /><path
       id="rect5-2-7"
       style="fill:#ffffff;fill-opacity:1;stroke-width:0.187088"
       d="m -165.7352,106.82602 v 12.49588 h 9.04183 v -12.49588 z" /><path
       id="path6-9"
       style="fill:#ffffff;fill-opacity:1;stroke-width:0.264583"
       d="m -167.78159,77.219048 a 7.7065334,7.7065334 0 0 0 -3.41529,0.797884 c 0.53814,0.592712 1.00795,1.247874 1.39216,1.953369 1.44736,2.64253 1.65707,5.90719 0.55966,8.71058 -0.45031,1.16363 -1.12009,2.23188 -1.95286,3.15278 a 7.7065334,7.7065334 0 0 0 3.41633,0.7984 7.7065334,7.7065334 0 0 0 7.70651,-7.70651 7.7065334,7.7065334 0 0 0 -7.70651,-7.706503 z" /><path
       id="rect5-27-6"
       style="fill:#ffffff;fill-opacity:1;stroke-width:0.264583"
       d="m -191.34501,94.329631 c -5.37504,0 -9.70225,4.21782 -9.70225,9.456789 v 6.07921 c 0,5.02261 3.9771,9.10637 9.04183,9.43509 v -8.8899 c -0.0339,-0.71737 -0.0269,-1.43774 0,-2.14871 v -1.43712 -0.59841 h 0.01 c -0.0369,-2.01039 -0.12983,-4.03262 0.44441,-5.97431 0.66212,-2.369219 2.17008,-4.411249 4.12482,-5.858039 -0.37579,-0.04274 -0.75825,-0.0646 -1.14619,-0.0646 z" /><path
       id="rect5-2-7-5"
       style="fill:#ffffff;fill-opacity:1;stroke-width:0.187088"
       d="m -201.04726,106.82602 v 12.49588 h 9.04235 v -12.49588 z" /><path
       id="path6-9-0"
       style="fill:#ffffff;fill-opacity:1;stroke-width:0.264583"
       d="m -189.95904,77.219048 a 7.7065334,7.7065334 0 0 0 -7.70651,7.706503 7.7065334,7.7065334 0 0 0 7.70651,7.70651 7.7065334,7.7065334 0 0 0 3.41529,-0.79788 c -1.33343,-1.49027 -2.23772,-3.36372 -2.53731,-5.34697 -0.46235,-3.01675 0.47823,-6.215862 2.5399,-8.469246 a 7.7065334,7.7065334 0 0 0 -3.41788,-0.798917 z" /><rect
       style="fill:#ffffff;fill-opacity:1;stroke-width:0.264583"
       id="rect5-24"
       width="22.177105"
       height="24.992493"
       x="-189.95862"
       y="94.329781"
       ry="9.4566278"
       rx="9.7022505" /><rect
       style="fill:#ffffff;fill-opacity:1;stroke-width:0.187088"
       id="rect5-2-8"
       width="22.177105"
       height="12.49625"
       x="-189.95862"
       y="106.826"
       ry="0"
       rx="0" /><circle
       style="fill:#ffffff;fill-opacity:1;stroke-width:0.264583"
       id="path6-6"
       cx="-178.87007"
       cy="84.925636"
       r="7.7065334" /></g></svg>
