<?xml version="1.0" encoding="UTF-8" standalone="no"?>
<!-- Created with Inkscape (http://www.inkscape.org/) -->

<svg
   width="50mm"
   height="50mm"
   viewBox="0 0 50 50"
   version="1.1"
   id="svg1"
   xml:space="preserve"
   xmlns="http://www.w3.org/2000/svg"
   xmlns:svg="http://www.w3.org/2000/svg"><defs
     id="defs1" /><g
     id="layer1"
     transform="translate(203.87006,-13.755087)"><path
       d="m -178.34247,21.108141 c -1.18324,-0.01894 -2.37038,0.212762 -3.28507,0.699699 l -18.78076,9.998356 c -0.79001,0.420565 -1.24387,0.960299 -1.35961,1.521354 -0.11459,0.305424 -0.17725,0.638993 -0.17725,0.98857 v 7.83053 c 0,1.478406 1.12566,2.668566 2.52388,2.668566 1.39821,0 2.52387,-1.19016 2.52387,-2.668566 v -4.671033 l 3.7021,2.125452 v 9.339477 0.30955 c 0.0676,0.31471 0.3416,0.62341 0.82269,0.87229 l 1.24592,0.64441 10.01024,5.17849 c 1.13086,0.58503 2.96545,0.61318 4.11345,0.0625 l 10.92594,-5.24102 0.8599,-0.41238 c 0.49961,-0.23964 0.78407,-0.54789 0.85318,-0.86816 v -0.30954 -9.512085 l 7.17992,-3.821989 c 1.82937,-0.973873 1.85515,-2.588525 0.0579,-3.620451 l -17.95498,-10.309418 c -0.89863,-0.515963 -2.07806,-0.785662 -3.2613,-0.804602 z"
       style="fill:#ffffff;stroke-width:0.158291"
       id="path5" /></g></svg>
